# xmcd
#
# Track frame offsets:
#	150
#	14985
#	39288
#	59064
#	77822
#	116149
#	130950
#	142623
#	170833
#	190214
#	221502
#	248822
#	268133
#	302803
#	314106
#	328156
#
# Disc length: 4599
#
# Revision: 4
# Processed by: cddbd v1.5.1PL0 Copyright (c) Steve Scherf et al.
# Submitted via: EasyCDDAExtractor 4.5.0.2
# Normalized: r2:DSETVAR1,TSWAP
#
DISCID=fc11f510
DTITLE=Various Artist - Black Blues - The Best of Soundtrack
DYEAR=1900
DGENRE=Blues
TTITLE0=Sonny Boy Williamson - The Sky Is Crying
TTITLE1=B. B. King - Darlin' What Happened
TTITLE2=Ry Cooder - Crossroads
TTITLE3=Robert Gray - Move a Mountain
TTITLE4=Buddy Guy - Five Long Years
TTITLE5=Sonny Boy Williamson - Once Upon a Time
TTITLE6=John Lee Hooker - Boom Boom
TTITLE7=Luter Allison - Meet Me in My Old Hometown
TTITLE8=Ry Cooder - Feelin' Bad Blues
TTITLE9=Buddy Guy - Rememberin' Stevie
TTITLE10=Jimi Hendrix - Catfish Blues
TTITLE11=Phill Ubchurch and James van Buren - Sweet Woman Blues
TTITLE12=Buddy Guy - Black Night
TTITLE13=John Lee Hooker - Worried Life Blues
TTITLE14=Keb' Mo' - Love in Vain
TTITLE15=Jimi Hendrix - Gypsy Eyes
EXTD=
EXTT0=
EXTT1=
EXTT2=
EXTT3=
EXTT4=
EXTT5=
EXTT6=
EXTT7=
EXTT8=
EXTT9=
EXTT10=
EXTT11=
EXTT12=
EXTT13=
EXTT14=
EXTT15=
PLAYORDER=
